<svg width="175" height="132" viewBox="0 0 175 132" fill="none" xmlns="http://www.w3.org/2000/svg">
<path d="M9 39.15C7.62 39.15 6.37 38.81 5.25 38.13C4.15 37.45 3.28 36.47 2.64 35.19C2 33.89 1.68 32.36 1.68 30.6C1.68 27.56 2.33 24.75 3.63 22.17C4.93 19.57 6.85 17.49 9.39 15.93C11.93 14.35 14.98 13.56 18.54 13.56C19.46 13.56 20.44 13.63 21.48 13.77C22.54 13.91 23.5 14.12 24.36 14.4C24.92 14.56 25.2 14.96 25.2 15.6C25.2 16.12 25 16.61 24.6 17.07C24.22 17.53 23.77 17.76 23.25 17.76C23.09 17.76 22.97 17.75 22.89 17.73C21.85 17.49 20.96 17.32 20.22 17.22C19.48 17.1 18.7 17.04 17.88 17.04C15.34 17.04 13.18 17.66 11.4 18.9C9.62 20.12 8.29 21.74 7.41 23.76C6.53 25.78 6.09 27.96 6.09 30.3C6.09 32 6.42 33.32 7.08 34.26C7.76 35.18 8.64 35.64 9.72 35.64C10.94 35.64 12.01 35.14 12.93 34.14C13.85 33.14 14.69 31.52 15.45 29.28C16.21 27.04 16.96 24 17.7 20.16C17.82 19.6 18.06 19.22 18.42 19.02C18.78 18.82 19.26 18.72 19.86 18.72C21.28 18.72 21.99 19.18 21.99 20.1C21.99 20.26 21.96 20.46 21.9 20.7C21.38 22.64 20.9 24.79 20.46 27.15C20.04 29.49 19.83 31.27 19.83 32.49C19.83 33.57 19.99 34.36 20.31 34.86C20.63 35.34 21.12 35.58 21.78 35.58C22.42 35.58 23.03 35.37 23.61 34.95C24.19 34.51 24.92 33.77 25.8 32.73C26.04 32.45 26.31 32.31 26.61 32.31C26.87 32.31 27.07 32.43 27.21 32.67C27.37 32.91 27.45 33.24 27.45 33.66C27.45 34.44 27.26 35.06 26.88 35.52C25.9 36.7 24.94 37.6 24 38.22C23.06 38.84 21.91 39.15 20.55 39.15C19.15 39.15 18.02 38.75 17.16 37.95C16.3 37.13 15.76 35.98 15.54 34.5C14.06 37.6 11.88 39.15 9 39.15ZM40.984 29.79C41.244 29.79 41.444 29.92 41.584 30.18C41.724 30.44 41.794 30.77 41.794 31.17C41.794 31.67 41.724 32.06 41.584 32.34C41.444 32.6 41.224 32.78 40.924 32.88C39.724 33.3 38.404 33.54 36.964 33.6C36.564 35.26 35.804 36.6 34.684 37.62C33.584 38.64 32.364 39.15 31.024 39.15C29.004 39.15 27.534 38.38 26.614 36.84C25.694 35.3 25.234 33.07 25.234 30.15C25.234 27.57 25.554 24.77 26.194 21.75C26.834 18.71 27.764 16.13 28.984 14.01C30.224 11.87 31.694 10.8 33.394 10.8C34.314 10.8 35.054 11.2 35.614 12C36.174 12.78 36.454 13.8 36.454 15.06C36.454 16.7 36.144 18.33 35.524 19.95C34.904 21.57 33.874 23.27 32.434 25.05C33.774 25.15 34.864 25.71 35.704 26.73C36.544 27.73 37.044 28.97 37.204 30.45C38.144 30.39 39.264 30.19 40.564 29.85C40.684 29.81 40.824 29.79 40.984 29.79ZM32.704 13.77C32.304 13.77 31.864 14.37 31.384 15.57C30.924 16.75 30.494 18.36 30.094 20.4C29.694 22.44 29.394 24.67 29.194 27.09C30.514 24.67 31.564 22.54 32.344 20.7C33.144 18.84 33.544 17.19 33.544 15.75C33.544 15.11 33.464 14.62 33.304 14.28C33.164 13.94 32.964 13.77 32.704 13.77ZM31.144 35.97C31.764 35.97 32.314 35.71 32.794 35.19C33.274 34.67 33.594 33.92 33.754 32.94C33.134 32.52 32.654 31.97 32.314 31.29C31.994 30.61 31.834 29.89 31.834 29.13C31.834 28.85 31.874 28.47 31.954 27.99H31.864C31.044 27.99 30.354 28.4 29.794 29.22C29.254 30.02 28.984 31.1 28.984 32.46C28.984 33.6 29.194 34.47 29.614 35.07C30.054 35.67 30.564 35.97 31.144 35.97ZM41.3337 39.15C40.5737 39.15 40.0337 38.75 39.7137 37.95C39.4137 37.15 39.2637 35.87 39.2637 34.11C39.2637 31.51 39.6337 29.04 40.3737 26.7C40.5537 26.12 40.8437 25.7 41.2437 25.44C41.6637 25.16 42.2437 25.02 42.9837 25.02C43.3837 25.02 43.6637 25.07 43.8237 25.17C43.9837 25.27 44.0637 25.46 44.0637 25.74C44.0637 26.06 43.9137 26.78 43.6137 27.9C43.4137 28.7 43.2537 29.4 43.1337 30C43.0137 30.6 42.9137 31.34 42.8337 32.22C43.4937 30.5 44.2337 29.1 45.0537 28.02C45.8737 26.94 46.6737 26.17 47.4537 25.71C48.2537 25.25 48.9837 25.02 49.6437 25.02C50.9437 25.02 51.5937 25.67 51.5937 26.97C51.5937 27.75 51.3737 29.16 50.9337 31.2C50.5537 32.94 50.3637 34.09 50.3637 34.65C50.3637 35.45 50.6537 35.85 51.2337 35.85C51.6337 35.85 52.1037 35.61 52.6437 35.13C53.2037 34.63 53.9437 33.83 54.8637 32.73C55.1037 32.45 55.3737 32.31 55.6737 32.31C55.9337 32.31 56.1337 32.43 56.2737 32.67C56.4337 32.91 56.5137 33.24 56.5137 33.66C56.5137 34.46 56.3237 35.08 55.9437 35.52C55.0837 36.58 54.1537 37.45 53.1537 38.13C52.1737 38.81 51.0537 39.15 49.7937 39.15C48.7737 39.15 48.0037 38.86 47.4837 38.28C46.9637 37.68 46.7037 36.82 46.7037 35.7C46.7037 35.14 46.8437 34.14 47.1237 32.7C47.3837 31.44 47.5137 30.57 47.5137 30.09C47.5137 29.77 47.4037 29.61 47.1837 29.61C46.9237 29.61 46.5537 29.95 46.0737 30.63C45.6137 31.29 45.1337 32.17 44.6337 33.27C44.1537 34.37 43.7637 35.53 43.4637 36.75C43.2437 37.69 42.9837 38.33 42.6837 38.67C42.4037 38.99 41.9537 39.15 41.3337 39.15ZM67.4665 32.31C67.7265 32.31 67.9265 32.43 68.0665 32.67C68.2265 32.91 68.3065 33.24 68.3065 33.66C68.3065 34.46 68.1165 35.08 67.7365 35.52C66.9965 36.42 65.9465 37.25 64.5865 38.01C63.2465 38.77 61.8065 39.15 60.2665 39.15C58.1665 39.15 56.5365 38.58 55.3765 37.44C54.2165 36.3 53.6365 34.74 53.6365 32.76C53.6365 31.38 53.9265 30.1 54.5065 28.92C55.0865 27.72 55.8865 26.77 56.9065 26.07C57.9465 25.37 59.1165 25.02 60.4165 25.02C61.5765 25.02 62.5065 25.37 63.2065 26.07C63.9065 26.75 64.2565 27.68 64.2565 28.86C64.2565 30.24 63.7565 31.43 62.7565 32.43C61.7765 33.41 60.1065 34.19 57.7465 34.77C58.2465 35.69 59.1965 36.15 60.5965 36.15C61.4965 36.15 62.5165 35.84 63.6565 35.22C64.8165 34.58 65.8165 33.75 66.6565 32.73C66.8965 32.45 67.1665 32.31 67.4665 32.31ZM59.9065 27.96C59.1665 27.96 58.5365 28.39 58.0165 29.25C57.5165 30.11 57.2665 31.15 57.2665 32.37V32.43C58.4465 32.15 59.3765 31.73 60.0565 31.17C60.7365 30.61 61.0765 29.96 61.0765 29.22C61.0765 28.84 60.9665 28.54 60.7465 28.32C60.5465 28.08 60.2665 27.96 59.9065 27.96ZM77.9838 29.13C78.4238 29.13 78.7938 29.29 79.0938 29.61C79.4138 29.91 79.5738 30.29 79.5738 30.75C79.5738 31.01 79.5138 31.29 79.3938 31.59C79.0738 32.33 78.6238 32.95 78.0438 33.45C77.4638 33.95 76.8238 34.2 76.1238 34.2C75.5638 34.2 75.0838 34 74.6838 33.6C74.3038 33.2 74.1138 32.66 74.1138 31.98C74.1138 31.6 74.1338 31.19 74.1738 30.75C74.2138 30.43 74.2338 30.21 74.2338 30.09C74.2338 29.93 74.1938 29.81 74.1138 29.73C74.0538 29.65 73.9738 29.61 73.8738 29.61C73.5938 29.61 73.2138 29.95 72.7338 30.63C72.2538 31.29 71.7738 32.17 71.2938 33.27C70.8138 34.37 70.4238 35.53 70.1238 36.75C69.9038 37.71 69.6538 38.35 69.3738 38.67C69.0938 38.99 68.6338 39.15 67.9938 39.15C67.2338 39.15 66.6938 38.75 66.3738 37.95C66.0738 37.15 65.9238 35.87 65.9238 34.11C65.9238 31.51 66.2938 29.04 67.0338 26.7C67.2138 26.12 67.5038 25.7 67.9038 25.44C68.3238 25.16 68.9038 25.02 69.6438 25.02C70.0438 25.02 70.3238 25.07 70.4838 25.17C70.6438 25.27 70.7238 25.46 70.7238 25.74C70.7238 26.06 70.5738 26.78 70.2738 27.9C70.0738 28.7 69.9138 29.4 69.7938 30C69.6738 30.6 69.5738 31.34 69.4938 32.22C70.1538 30.5 70.8938 29.1 71.7138 28.02C72.5338 26.94 73.3338 26.17 74.1138 25.71C74.8938 25.25 75.6038 25.02 76.2438 25.02C76.8238 25.02 77.2638 25.19 77.5638 25.53C77.8838 25.85 78.0438 26.33 78.0438 26.97C78.0438 27.35 77.9338 28.07 77.7138 29.13H77.9838Z" fill="white"/>
<path d="M120.339 65.944L120.7 66.8765L120.7 66.8765L120.339 65.944ZM136.839 118.444L148.181 120.611L144.387 109.705L136.839 118.444ZM71.8672 35.7096C70.2535 42.4033 68.1383 49.4242 66.9815 55.5843C65.8294 61.7188 65.5296 67.4171 67.8342 71.4583C70.2233 75.6475 75.1546 77.6931 83.4506 77.1454C91.75 76.5974 103.721 73.4493 120.7 66.8765L119.978 65.0114C103.046 71.5657 91.3062 74.6224 83.3189 75.1497C75.3282 75.6773 71.3972 73.6689 69.5716 70.4676C67.6616 67.1183 67.7948 62.0895 68.9471 55.9534C70.0946 49.8429 72.155 43.0496 73.8115 36.1784L71.8672 35.7096ZM120.7 66.8765C131.378 62.7431 140.375 62.7466 147.308 65.2223C154.241 67.6981 159.188 72.6718 161.75 78.6382C166.859 90.5387 162.521 106.564 144.923 114.577L145.752 116.397C164.278 107.961 169.152 90.8102 163.587 77.8492C160.812 71.3848 155.45 66.0063 147.981 63.3388C140.511 60.6713 131.012 60.7403 119.978 65.0114L120.7 66.8765Z" fill="white" fill-opacity="0.74"/>
<g clip-path="url(#clip0_119_2)">
<path d="M121 123.893C119.939 123.893 118.922 123.471 118.172 122.721C117.421 121.971 117 120.954 117 119.893C117 118.832 117.421 117.815 118.172 117.064C118.922 116.314 119.939 115.893 121 115.893C122.061 115.893 123.078 116.314 123.828 117.064C124.579 117.815 125 118.832 125 119.893C125 120.954 124.579 121.971 123.828 122.721C123.078 123.471 122.061 123.893 121 123.893ZM121 111.893C121.212 111.893 121.416 111.977 121.566 112.127C121.716 112.277 121.8 112.481 121.8 112.693V114.293C121.8 114.505 121.716 114.709 121.566 114.859C121.416 115.009 121.212 115.093 121 115.093C120.788 115.093 120.584 115.009 120.434 114.859C120.284 114.709 120.2 114.505 120.2 114.293V112.693C120.2 112.481 120.284 112.277 120.434 112.127C120.584 111.977 120.788 111.893 121 111.893ZM121 124.693C121.212 124.693 121.416 124.777 121.566 124.927C121.716 125.077 121.8 125.281 121.8 125.493V127.093C121.8 127.305 121.716 127.509 121.566 127.659C121.416 127.809 121.212 127.893 121 127.893C120.788 127.893 120.584 127.809 120.434 127.659C120.284 127.509 120.2 127.305 120.2 127.093V125.493C120.2 125.281 120.284 125.077 120.434 124.927C120.584 124.777 120.788 124.693 121 124.693ZM113.8 119.093H115.4C115.612 119.093 115.816 119.177 115.966 119.327C116.116 119.477 116.2 119.681 116.2 119.893C116.2 120.105 116.116 120.309 115.966 120.459C115.816 120.609 115.612 120.693 115.4 120.693H113.8C113.588 120.693 113.384 120.609 113.234 120.459C113.084 120.309 113 120.105 113 119.893C113 119.681 113.084 119.477 113.234 119.327C113.384 119.177 113.588 119.093 113.8 119.093ZM126.6 119.093H128.2C128.412 119.093 128.616 119.177 128.766 119.327C128.916 119.477 129 119.681 129 119.893C129 120.105 128.916 120.309 128.766 120.459C128.616 120.609 128.412 120.693 128.2 120.693H126.6C126.388 120.693 126.184 120.609 126.034 120.459C125.884 120.309 125.8 120.105 125.8 119.893C125.8 119.681 125.884 119.477 126.034 119.327C126.184 119.177 126.388 119.093 126.6 119.093ZM126.657 114.236C126.807 114.386 126.891 114.59 126.891 114.802C126.891 115.014 126.807 115.217 126.657 115.367L125.526 116.499C125.452 116.575 125.364 116.636 125.266 116.678C125.168 116.72 125.063 116.742 124.957 116.743C124.851 116.744 124.746 116.723 124.647 116.683C124.549 116.643 124.46 116.584 124.384 116.508C124.309 116.433 124.25 116.344 124.21 116.246C124.17 116.147 124.149 116.042 124.15 115.936C124.151 115.83 124.173 115.725 124.215 115.627C124.257 115.529 124.318 115.441 124.394 115.367L125.526 114.236C125.676 114.086 125.879 114.002 126.091 114.002C126.303 114.002 126.507 114.086 126.657 114.236ZM117.606 123.287C117.756 123.437 117.84 123.641 117.84 123.853C117.84 124.065 117.756 124.268 117.606 124.419L116.474 125.55C116.401 125.626 116.312 125.687 116.215 125.729C116.117 125.771 116.012 125.793 115.906 125.794C115.8 125.795 115.694 125.775 115.596 125.734C115.498 125.694 115.408 125.635 115.333 125.56C115.258 125.485 115.199 125.395 115.159 125.297C115.118 125.199 115.098 125.093 115.099 124.987C115.1 124.881 115.122 124.776 115.164 124.678C115.206 124.581 115.267 124.492 115.343 124.419L116.474 123.287C116.624 123.137 116.828 123.053 117.04 123.053C117.252 123.053 117.456 123.137 117.606 123.287ZM116.474 114.236L117.606 115.367C117.751 115.518 117.832 115.72 117.83 115.93C117.828 116.14 117.744 116.34 117.596 116.489C117.448 116.637 117.247 116.721 117.037 116.723C116.827 116.725 116.625 116.644 116.474 116.499L115.344 115.367C115.198 115.216 115.118 115.014 115.119 114.805C115.121 114.595 115.205 114.394 115.354 114.246C115.502 114.098 115.703 114.013 115.912 114.012C116.122 114.01 116.324 114.09 116.475 114.236H116.474ZM125.526 123.287L126.657 124.419C126.803 124.569 126.883 124.771 126.881 124.981C126.88 125.191 126.795 125.392 126.647 125.54C126.499 125.688 126.298 125.772 126.088 125.774C125.879 125.776 125.676 125.695 125.526 125.55L124.394 124.419C124.318 124.345 124.257 124.256 124.215 124.159C124.173 124.061 124.151 123.956 124.15 123.85C124.149 123.744 124.17 123.638 124.21 123.54C124.25 123.442 124.309 123.353 124.384 123.277C124.46 123.202 124.549 123.143 124.647 123.103C124.746 123.062 124.851 123.042 124.957 123.043C125.063 123.044 125.168 123.066 125.266 123.108C125.364 123.15 125.452 123.211 125.526 123.287Z" fill="#FF7A46"/>
</g>
<rect x="109.5" y="108.5" width="23" height="23" rx="7.5" stroke="white"/>
<defs>
<clipPath id="clip0_119_2">
<rect x="109" y="108" width="24" height="24" rx="8" fill="white"/>
</clipPath>
</defs>
</svg>
